<svg width="600" height="600" viewBox="0 0 600 600" fill="none" xmlns="http://www.w3.org/2000/svg">
<rect width="600" height="600" rx="140" fill="white"/>
<mask id="mask0_31_113" style="mask-type:luminance" maskUnits="userSpaceOnUse" x="83" y="78" width="454" height="444">
<path d="M536.136 78.2465H83.8638V521.754H536.136V78.2465Z" fill="white"/>
</mask>
<g mask="url(#mask0_31_113)">
<path d="M193.952 378.71L168.358 491.603L95.4335 521.754L137.856 382.216C122.897 382.45 91.1562 371.347 83.8638 325.068C96.2048 364.616 127.338 374.035 141.362 373.801C254.606 364.335 303.339 315.953 373.108 255.299C428.923 206.776 478.637 142.055 496.518 115.761V108.749L536.135 78.2465C536.135 78.2465 461.576 174.895 427.801 215.682V263.363L344.008 297.371V346.104L427.801 307.889V378.71L284.757 444.973L254.605 354.168C254.605 354.168 209.145 372.399 193.952 378.71Z" fill="#01509A"/>
<path d="M225.155 259.857L211.13 320.16H156.788L200.963 171.856L251.799 153.625L281.25 227.952V140.302L424.294 78.2465V146.964L343.306 180.972V227.952C350.435 224.33 375.421 213.788 418.335 200.606C340.361 269.604 268.979 302.747 243.034 310.694L225.155 259.857Z" fill="#01509A"/>
</g>
</svg>
